# Exported by Open CASCADE Technology [dev.opencascade.org]
#  Vertices: 492
#     Faces: 426
# Authors: pythonocc
g ASSEMBLY/SOLID
v 0.000000 0.000000 0.000000
v 0.000000 8.000000 0.000000
v 0.000000 0.000000 -70.000000
v 0.000000 8.000000 -70.000000
v -0.000000 3.000000 -5.000000
v -0.000000 8.000000 -5.000000
v -0.000000 5.000000 -5.000000
v -0.000000 5.000000 -65.000000
v -0.000000 0.000000 -65.000000
v -0.000000 3.000000 -65.000000
vn -1.000000 0.000000 0.000000
vn -1.000000 0.000000 0.000000
vn -1.000000 0.000000 0.000000
vn -1.000000 0.000000 0.000000
vn -1.000000 0.000000 0.000000
vn -1.000000 0.000000 0.000000
vn -1.000000 0.000000 0.000000
vn -1.000000 0.000000 0.000000
vn -1.000000 0.000000 0.000000
vn -1.000000 0.000000 0.000000
vt 0.000000 0.000000
vt 8.000000 0.000000
vt 0.000000 -70.000000
vt 8.000000 -70.000000
vt 3.000000 -5.000000
vt 8.000000 -5.000000
vt 5.000000 -5.000000
vt 5.000000 -65.000000
vt 0.000000 -65.000000
vt 3.000000 -65.000000
f 3/3/3 2/2/2 4/4/4
f 3/3/3 1/1/1 2/2/2
v -0.000000 8.000000 -5.000000
v 0.138150 8.000000 -3.832774
v 0.544967 8.000000 -2.730047
v 1.197970 8.000000 -1.752760
v 2.061074 8.000000 -0.954915
v 3.086583 8.000000 -0.380602
v 4.024549 8.000000 -0.096073
v 5.000000 8.000000 0.000000
v 5.000000 3.000000 0.000000
v 5.000000 4.167226 -0.138150
v 5.000000 5.269952 -0.544967
v 5.000000 6.247240 -1.197970
v 5.000000 7.045085 -2.061074
v 5.000000 7.619398 -3.086583
v 5.000000 7.903926 -4.024549
v 5.000000 8.000000 -5.000000
v 3.832774 7.861850 -5.000000
v 2.730047 7.455033 -5.000000
v 1.752760 6.802030 -5.000000
v 0.954915 5.938926 -5.000000
v 0.380602 4.913417 -5.000000
v 0.096073 3.975451 -5.000000
v -0.000000 3.000000 -5.000000
vn -0.986158 0.149736 -0.071216
vn -0.384001 0.686890 0.617029
vn -0.669859 0.740473 0.054662
vn -0.798297 0.460530 0.388115
vn -0.171740 0.544538 0.820965
vn -0.136797 0.816335 0.561145
vn -0.693678 0.588507 0.415296
vn 0.069004 0.156843 0.985210
vn 0.021949 0.026338 0.999412
vn -0.098742 0.136093 0.985763
vn -0.240020 -0.105557 0.965012
vn -0.421004 -0.041562 0.906106
vn -0.222188 0.956022 -0.191455
vn 0.029441 0.999109 0.030236
vn 0.012709 0.981577 0.190643
vn -0.049925 0.997503 0.049951
vn -0.188839 0.981421 -0.033953
vn 0.082475 0.996418 0.018675
vn 0.037829 0.911430 0.409713
vn -0.936901 -0.188096 0.294680
vn -0.974062 -0.004953 0.226228
vn -0.988901 0.136480 0.058723
vn -0.999441 0.025401 -0.021735
vt -3.542735 1.228942
vt -2.461209 0.756007
vt -1.428247 0.504425
vt -0.396454 0.396168
vt 0.737577 0.420268
vt 1.725394 0.566538
vt 2.647279 0.826928
vt 3.528219 1.228942
vt 3.544532 -2.862982
vt 3.445184 -1.861103
vt 3.191855 -0.893677
vt 2.734200 0.195408
vt 1.984315 1.418555
vt 1.326650 2.203670
vt 0.719848 2.766208
vt 0.009169 3.260710
vt -0.840720 2.655757
vt -1.537323 1.966708
vt -2.233646 1.053153
vt -2.921339 -0.211467
vt -3.281926 -1.212296
vt -3.462544 -2.028773
vt -3.526422 -2.862982
f 30/30/30 31/31/31 33/33/33
f 33/33/33 31/31/31 32/32/32
f 30/30/30 33/33/33 11/11/11
v 5.000000 8.000000 -5.000000
v 3.832774 7.861850 -5.000000
v 2.730047 7.455033 -5.000000
v 1.752760 6.802030 -5.000000
v 0.954915 5.938926 -5.000000
v 0.380602 4.913417 -5.000000
v 0.096073 3.975451 -5.000000
v -0.000000 3.000000 -5.000000
v 5.000000 8.000000 -65.000000
v -0.000000 3.000000 -65.000000
v 0.125360 4.112605 -65.000000
v 0.495156 5.169419 -65.000000
v 1.090843 6.117449 -65.000000
v 1.882551 6.909157 -65.000000
v 2.830581 7.504844 -65.000000
v 3.887395 7.874640 -65.000000
vn -0.000000 1.000000 0.000000
vn -0.233445 0.972370 0.000000
vn -0.453990 0.891007 0.000000
vn -0.649448 0.760406 0.000000
vn -0.809017 0.587785 0.000000
vn -0.923880 0.382683 0.000000
vn -0.980785 0.195090 0.000000
vn -1.000000 0.000000 0.000000
vn -0.000000 1.000000 0.000000
vn -1.000000 0.000000 0.000000
vn -0.974928 0.222521 0.000000
vn -0.900969 0.433884 0.000000
vn -0.781832 0.623490 0.000000
vn -0.623490 0.781832 0.000000
vn -0.433884 0.900969 0.000000
vn -0.222521 0.974928 0.000000
vt 1.570796 5.000000
vt 1.335177 5.000000
vt 1.099557 5.000000
vt 0.863938 5.000000
vt 0.628319 5.000000
vt 0.392699 5.000000
vt 0.196349 5.000000
vt 0.000000 5.000000
vt 1.570796 65.000000
vt 0.000000 65.000000
vt 0.224399 65.000000
vt 0.448799 65.000000
vt 0.673198 65.000000
vt 0.897598 65.000000
vt 1.121997 65.000000
vt 1.346397 65.000000
f 43/43/43 41/41/41 40/40/40
f 44/44/44 40/40/40 39/39/39
f 44/44/44 43/43/43 40/40/40
f 45/45/45 39/39/39 38/38/38
f 45/45/45 44/44/44 39/39/39
f 46/46/46 38/38/38 37/37/37
f 46/46/46 45/45/45 38/38/38
f 47/47/47 37/37/37 36/36/36
f 47/47/47 46/46/46 37/37/37
f 48/48/48 36/36/36 35/35/35
f 48/48/48 47/47/47 36/36/36
f 49/49/49 35/35/35 34/34/34
f 49/49/49 48/48/48 35/35/35
f 42/42/42 49/49/49 34/34/34
v -0.000000 5.000000 -5.000000
v -0.000000 8.000000 -5.000000
v 0.125360 5.000000 -3.887395
v 0.495156 5.000000 -2.830581
v 1.090843 5.000000 -1.882551
v 1.882551 5.000000 -1.090843
v 2.830581 5.000000 -0.495156
v 3.887395 5.000000 -0.125360
v 5.000000 5.000000 0.000000
v 5.000000 8.000000 0.000000
v 0.138150 8.000000 -3.832774
v 0.544967 8.000000 -2.730047
v 1.197970 8.000000 -1.752760
v 2.061074 8.000000 -0.954915
v 3.086583 8.000000 -0.380602
v 4.024549 8.000000 -0.096073
vn -1.000000 0.000000 0.000000
vn -1.000000 0.000000 0.000000
vn -0.974928 0.000000 0.222521
vn -0.900969 0.000000 0.433884
vn -0.781832 0.000000 0.623490
vn -0.623490 0.000000 0.781832
vn -0.433884 0.000000 0.900969
vn -0.222521 0.000000 0.974928
vn -0.000000 0.000000 1.000000
vn -0.000000 0.000000 1.000000
vn -0.972370 0.000000 0.233445
vn -0.891007 0.000000 0.453990
vn -0.760406 0.000000 0.649448
vn -0.587785 0.000000 0.809017
vn -0.382683 0.000000 0.923880
vn -0.195090 0.000000 0.980785
vt 0.000000 5.000000
vt 0.000000 8.000000
vt 0.224399 5.000000
vt 0.448799 5.000000
vt 0.673198 5.000000
vt 0.897598 5.000000
vt 1.121997 5.000000
vt 1.346397 5.000000
vt 1.570796 5.000000
vt 1.570796 8.000000
vt 0.235619 8.000000
vt 0.471239 8.000000
vt 0.706858 8.000000
vt 0.942478 8.000000
vt 1.178097 8.000000
vt 1.374447 8.000000
f 51/51/51 50/50/50 52/52/52
f 60/60/60 52/52/52 53/53/53
f 60/60/60 51/51/51 52/52/52
f 61/61/61 53/53/53 54/54/54
f 61/61/61 60/60/60 53/53/53
f 62/62/62 54/54/54 55/55/55
f 62/62/62 61/61/61 54/54/54
f 63/63/63 55/55/55 56/56/56
f 63/63/63 62/62/62 55/55/55
f 64/64/64 56/56/56 57/57/57
f 64/64/64 63/63/63 56/56/56
f 65/65/65 57/57/57 58/58/58
f 65/65/65 64/64/64 57/57/57
f 59/59/59 65/65/65 58/58/58
v -0.000000 0.000000 -65.000000
v 0.138150 0.000000 -66.167229
v 0.544967 0.000000 -67.269951
v 1.197970 0.000000 -68.247238
v 2.061074 0.000000 -69.045082
v 3.086583 0.000000 -69.619400
v 4.024549 0.000000 -69.903923
v 5.000000 0.000000 -70.000000
v 5.000000 3.000000 -70.000000
v 3.887395 3.000000 -69.874641
v 2.830581 3.000000 -69.504845
v 1.882551 3.000000 -68.909157
v 1.090843 3.000000 -68.117447
v 0.495156 3.000000 -67.169418
v 0.125360 3.000000 -66.112602
v -0.000000 3.000000 -65.000000
vn -1.000000 0.000000 0.000000
vn -0.972370 0.000000 -0.233445
vn -0.891007 0.000000 -0.453990
vn -0.760406 0.000000 -0.649448
vn -0.587785 0.000000 -0.809017
vn -0.382683 0.000000 -0.923880
vn -0.195090 0.000000 -0.980785
vn -0.000000 0.000000 -1.000000
vn -0.000000 0.000000 -1.000000
vn -0.222521 0.000000 -0.974928
vn -0.433884 0.000000 -0.900969
vn -0.623490 0.000000 -0.781832
vn -0.781832 0.000000 -0.623490
vn -0.900969 0.000000 -0.433884
vn -0.974928 0.000000 -0.222521
vn -1.000000 0.000000 0.000000
vt 0.000000 0.000000
vt 0.235619 0.000000
vt 0.471239 0.000000
vt 0.706858 0.000000
vt 0.942478 0.000000
vt 1.178097 0.000000
vt 1.374447 0.000000
vt 1.570796 0.000000
vt 1.570796 3.000000
vt 1.346397 3.000000
vt 1.121997 3.000000
vt 0.897598 3.000000
vt 0.673198 3.000000
vt 0.448799 3.000000
vt 0.224399 3.000000
vt 0.000000 3.000000
f 80/80/80 67/67/67 66/66/66
f 80/80/80 66/66/66 81/81/81
f 79/79/79 68/68/68 67/67/67
f 79/79/79 67/67/67 80/80/80
f 78/78/78 69/69/69 68/68/68
f 78/78/78 68/68/68 79/79/79
f 77/77/77 70/70/70 69/69/69
f 77/77/77 69/69/69 78/78/78
f 76/76/76 71/71/71 70/70/70
f 76/76/76 70/70/70 77/77/77
f 75/75/75 72/72/72 71/71/71
f 75/75/75 71/71/71 76/76/76
f 74/74/74 73/73/73 72/72/72
f 74/74/74 72/72/72 75/75/75
v 5.000000 0.000000 -5.000000
v 3.887395 0.125360 -5.000000
v 2.830581 0.495156 -5.000000
v 1.882551 1.090843 -5.000000
v 1.090843 1.882551 -5.000000
v 0.495156 2.830581 -5.000000
v 0.125360 3.887395 -5.000000
v -0.000000 5.000000 -5.000000
v 5.000000 -0.000000 -65.000000
v 3.832774 0.138150 -65.000000
v 2.730047 0.544967 -65.000000
v 1.752760 1.197970 -65.000000
v 0.954915 2.061074 -65.000000
v 0.380602 3.086583 -65.000000
v 0.096073 4.024549 -65.000000
v -0.000000 5.000000 -65.000000
vn -0.000000 -1.000000 0.000000
vn -0.222521 -0.974928 0.000000
vn -0.433884 -0.900969 0.000000
vn -0.623490 -0.781832 0.000000
vn -0.781832 -0.623490 0.000000
vn -0.900969 -0.433884 0.000000
vn -0.974928 -0.222521 0.000000
vn -1.000000 0.000000 0.000000
vn -0.000000 -1.000000 0.000000
vn -0.233445 -0.972370 0.000000
vn -0.453990 -0.891007 0.000000
vn -0.649448 -0.760406 0.000000
vn -0.809017 -0.587785 0.000000
vn -0.923880 -0.382683 0.000000
vn -0.980785 -0.195090 0.000000
vn -1.000000 0.000000 0.000000
vt 1.570796 5.000000
vt 1.346397 5.000000
vt 1.121997 5.000000
vt 0.897598 5.000000
vt 0.673198 5.000000
vt 0.448799 5.000000
vt 0.224399 5.000000
vt 0.000000 5.000000
vt 1.570796 65.000000
vt 1.335177 65.000000
vt 1.099557 65.000000
vt 0.863938 65.000000
vt 0.628319 65.000000
vt 0.392699 65.000000
vt 0.196349 65.000000
vt 0.000000 65.000000
f 96/96/96 88/88/88 89/89/89
f 96/96/96 89/89/89 97/97/97
f 95/95/95 87/87/87 88/88/88
f 95/95/95 88/88/88 96/96/96
f 94/94/94 86/86/86 87/87/87
f 94/94/94 87/87/87 95/95/95
f 93/93/93 85/85/85 86/86/86
f 93/93/93 86/86/86 94/94/94
f 92/92/92 84/84/84 85/85/85
f 92/92/92 85/85/85 93/93/93
f 91/91/91 83/83/83 84/84/84
f 91/91/91 84/84/84 92/92/92
f 90/90/90 82/82/82 83/83/83
f 90/90/90 83/83/83 91/91/91
v -0.000000 0.000000 -65.000000
v 0.138150 0.000000 -66.167229
v 0.544967 0.000000 -67.269951
v 1.197970 0.000000 -68.247238
v 2.061074 0.000000 -69.045082
v 3.086583 0.000000 -69.619400
v 4.024549 0.000000 -69.903923
v 5.000000 0.000000 -70.000000
v -0.000000 5.000000 -65.000000
v 5.000000 -0.000000 -65.000000
v 3.832774 0.138150 -65.000000
v 2.730047 0.544967 -65.000000
v 1.752760 1.197970 -65.000000
v 0.954915 2.061074 -65.000000
v 0.380602 3.086583 -65.000000
v 0.096073 4.024549 -65.000000
v 5.000000 5.000000 -70.000000
v 5.000000 3.832774 -69.861847
v 5.000000 2.730047 -69.455032
v 5.000000 1.752760 -68.802032
v 5.000000 0.954915 -67.938927
v 5.000000 0.380602 -66.913414
v 5.000000 0.096073 -65.975449
vn -0.986147 -0.149524 0.071817
vn -0.413000 -0.668333 -0.618678
vn -0.689221 -0.721538 -0.066018
vn -0.802899 -0.438997 -0.403281
vn -0.190260 -0.525420 -0.829298
vn -0.162995 -0.794588 -0.584861
vn -0.687771 -0.555477 -0.467351
vn 0.071817 -0.149524 -0.986147
vn -0.999424 -0.024990 0.022956
vn -0.044038 -0.998059 -0.044038
vn -0.197210 -0.979890 0.030384
vn 0.092479 -0.995445 -0.023187
vn 0.038329 -0.907895 -0.417442
vn -0.936145 0.190528 -0.295518
vn -0.972758 0.000202 -0.231821
vn -0.989134 -0.134637 -0.059046
vn 0.022956 -0.024990 -0.999424
vn -0.100824 -0.136885 -0.985443
vn -0.249818 0.103818 -0.962711
vn -0.413985 0.057928 -0.908439
vn -0.217804 -0.955112 0.200807
vn 0.029055 -0.999290 -0.023976
vn 0.011118 -0.980162 -0.197884
vt -3.535534 -1.216312
vt -2.459497 -0.739846
vt -1.423025 -0.483041
vt -0.384006 -0.371987
vt 0.751595 -0.396366
vt 1.744211 -0.546000
vt 2.669972 -0.813142
vt 3.535534 -1.216312
vt -3.535534 2.847159
vt 0.000000 -3.276434
vt -0.844264 -2.666880
vt -1.540901 -1.972192
vt -2.241247 -1.050436
vt -2.926956 0.213139
vt -3.286699 1.206605
vt -3.468972 2.019405
vt 3.535534 2.847159
vt 3.439839 1.852858
vt 3.189677 0.891568
vt 2.740376 -0.182665
vt 1.987022 -1.415311
vt 1.323131 -2.209698
vt 0.710818 -2.778838
f 117/117/117 105/105/105 114/114/114
v 0.000000 0.000000 0.000000
v 150.000000 0.000000 0.000000
v 0.000000 8.000000 0.000000
v 150.000000 8.000000 0.000000
v 5.000000 8.000000 0.000000
v 5.000000 3.000000 0.000000
v 145.000000 3.000000 0.000000
v 145.000000 8.000000 0.000000
v 145.000000 5.000000 0.000000
v 5.000000 5.000000 0.000000
vn 0.000000 0.000000 1.000000
vn 0.000000 0.000000 1.000000
vn 0.000000 0.000000 1.000000
vn 0.000000 0.000000 1.000000
vn 0.000000 0.000000 1.000000
vn 0.000000 0.000000 1.000000
vn 0.000000 0.000000 1.000000
vn 0.000000 0.000000 1.000000
vn 0.000000 0.000000 1.000000
vn 0.000000 0.000000 1.000000
vt 0.000000 0.000000
vt 0.000000 150.000000
vt 8.000000 0.000000
vt 8.000000 150.000000
vt 8.000000 5.000000
vt 3.000000 5.000000
vt 3.000000 145.000000
vt 8.000000 145.000000
vt 5.000000 145.000000
vt 5.000000 5.000000
f 124/124/124 127/127/127 122/122/122
f 122/122/122 126/126/126 121/121/121
f 122/122/122 127/127/127 126/126/126
f 123/123/123 121/121/121 126/126/126
f 127/127/127 124/124/124 129/129/129
f 130/130/130 123/123/123 126/126/126
f 130/130/130 129/129/129 123/123/123
f 129/129/129 124/124/124 123/123/123
v 0.000000 0.000000 -70.000000
v 150.000000 0.000000 -70.000000
v 0.000000 8.000000 -70.000000
v 150.000000 8.000000 -70.000000
v 5.000000 0.000000 -70.000000
v 5.000000 5.000000 -70.000000
v 5.000000 3.000000 -70.000000
v 145.000000 3.000000 -70.000000
v 145.000000 0.000000 -70.000000
v 145.000000 5.000000 -70.000000
vn 0.000000 0.000000 -1.000000
vn 0.000000 0.000000 -1.000000
vn 0.000000 0.000000 -1.000000
vn 0.000000 0.000000 -1.000000
vn 0.000000 0.000000 -1.000000
vn 0.000000 0.000000 -1.000000
vn 0.000000 0.000000 -1.000000
vn 0.000000 0.000000 -1.000000
vn 0.000000 0.000000 -1.000000
vn 0.000000 0.000000 -1.000000
vt 0.000000 0.000000
vt 0.000000 150.000000
vt 8.000000 0.000000
vt 8.000000 150.000000
vt 0.000000 5.000000
vt 5.000000 5.000000
vt 3.000000 5.000000
vt 3.000000 145.000000
vt 0.000000 145.000000
vt 5.000000 145.000000
f 132/132/132 140/140/140 134/134/134
f 131/131/131 133/133/133 136/136/136
f 133/133/133 134/134/134 140/140/140
f 133/133/133 140/140/140 136/136/136
f 136/136/136 137/137/137 131/131/131
f 139/139/139 131/131/131 137/137/137
f 139/139/139 137/137/137 138/138/138
v 5.000000 3.000000 0.000000
v 5.000000 4.167226 -0.138150
v 5.000000 5.269952 -0.544967
v 5.000000 6.247240 -1.197970
v 5.000000 7.045085 -2.061074
v 5.000000 7.619398 -3.086583
v 5.000000 7.903926 -4.024549
v 5.000000 8.000000 -5.000000
v 145.000000 8.000000 -5.000000
v 145.000000 3.000000 0.000000
v 145.000000 4.167226 -0.138150
v 145.000000 5.269952 -0.544967
v 145.000000 6.247240 -1.197970
v 145.000000 7.045085 -2.061074
v 145.000000 7.619398 -3.086583
v 145.000000 7.903926 -4.024549
vn 0.000000 0.000000 1.000000
vn 0.000000 0.233445 0.972370
vn 0.000000 0.453990 0.891007
vn 0.000000 0.649448 0.760406
vn 0.000000 0.809017 0.587785
vn 0.000000 0.923880 0.382683
vn 0.000000 0.980785 0.195090
vn 0.000000 1.000000 0.000000
vn 0.000000 1.000000 0.000000
vn 0.000000 0.000000 1.000000
vn 0.000000 0.233445 0.972370
vn 0.000000 0.453990 0.891007
vn 0.000000 0.649448 0.760406
vn 0.000000 0.809017 0.587785
vn 0.000000 0.923880 0.382683
vn 0.000000 0.980785 0.195090
vt 0.000000 5.000000
vt 0.235619 5.000000
vt 0.471239 5.000000
vt 0.706858 5.000000
vt 0.942478 5.000000
vt 1.178097 5.000000
vt 1.374447 5.000000
vt 1.570796 5.000000
vt 1.570796 145.000000
vt 0.000000 145.000000
vt 0.235619 145.000000
vt 0.471239 145.000000
vt 0.706858 145.000000
vt 0.942478 145.000000
vt 1.178097 145.000000
vt 1.374447 145.000000
f 151/151/151 142/142/142 141/141/141
f 151/151/151 143/143/143 142/142/142
f 151/151/151 141/141/141 150/150/150
f 152/152/152 144/144/144 143/143/143
f 152/152/152 143/143/143 151/151/151
f 153/153/153 144/144/144 152/152/152
f 154/154/154 145/145/145 144/144/144
f 154/154/154 146/146/146 145/145/145
f 154/154/154 144/144/144 153/153/153
f 155/155/155 146/146/146 154/154/154
f 156/156/156 147/147/147 146/146/146
f 156/156/156 148/148/148 147/147/147
f 156/156/156 146/146/146 155/155/155
f 149/149/149 148/148/148 156/156/156
v 5.000000 8.000000 -5.000000
v 5.000000 8.000000 -65.000000
v 145.000000 8.000000 -5.000000
v 145.000000 8.000000 -65.000000
vn 0.000000 1.000000 0.000000
vn 0.000000 1.000000 0.000000
vn 0.000000 1.000000 0.000000
vn 0.000000 1.000000 0.000000
vt 5.000000 5.000000
vt 5.000000 65.000000
vt 145.000000 5.000000
vt 145.000000 65.000000
f 160/160/160 158/158/158 157/157/157
f 160/160/160 157/157/157 159/159/159
v 5.000000 3.000000 -70.000000
v 3.887395 3.000000 -69.874641
v 2.830581 3.000000 -69.504845
v 1.882551 3.000000 -68.909157
v 1.090843 3.000000 -68.117447
v 0.495156 3.000000 -67.169418
v 0.125360 3.000000 -66.112602
v -0.000000 3.000000 -65.000000
v 5.000000 3.000000 -70.000000
v 5.000000 4.112605 -69.874641
v 5.000000 5.169419 -69.504845
v 5.000000 6.117449 -68.909157
v 5.000000 6.909157 -68.117447
v 5.000000 7.504844 -67.169418
v 5.000000 7.874640 -66.112602
v 5.000000 8.000000 -65.000000
v 0.125360 4.112605 -65.000000
v 0.495156 5.169419 -65.000000
v 1.090843 6.117449 -65.000000
v 1.882551 6.909157 -65.000000
v 2.830581 7.504844 -65.000000
v 3.887395 7.874640 -65.000000
v 3.473938 3.241704 -69.755280
v 3.623319 3.701454 -69.755280
v 3.907460 4.092540 -69.755280
v 2.204915 3.908178 -69.045082
v 4.298546 4.376681 -69.755280
v 2.622359 4.727458 -69.045082
v 1.004717 3.632791 -67.938927
v 4.758296 4.526062 -69.755280
v 3.272542 5.377641 -69.045082
v 1.395803 4.836430 -67.938927
v 4.091822 5.795085 -69.045082
v 2.139693 5.860307 -67.938927
v 0.477458 4.469463 -66.545082
v 3.163570 6.604197 -67.938927
v 1.152896 5.795085 -66.545082
v 4.367209 6.995283 -67.938927
v 2.204915 6.847105 -66.545082
v 3.530537 7.522542 -66.545082
vn -0.000000 0.000000 -1.000000
vn -0.222521 0.000000 -0.974928
vn -0.433884 0.000000 -0.900969
vn -0.623490 0.000000 -0.781832
vn -0.781832 0.000000 -0.623490
vn -0.900969 0.000000 -0.433884
vn -0.974928 0.000000 -0.222521
vn -1.000000 0.000000 0.000000
vn -0.000000 0.000000 -1.000000
vn -0.000000 0.222521 -0.974928
vn -0.000000 0.433884 -0.900969
vn -0.000000 0.623490 -0.781832
vn -0.000000 0.781832 -0.623490
vn -0.000000 0.900969 -0.433884
vn -0.000000 0.974928 -0.222521
vn -0.000000 1.000000 0.000000
vn -0.974928 0.222521 0.000000
vn -0.900969 0.433884 0.000000
vn -0.781832 0.623490 0.000000
vn -0.623490 0.781832 0.000000
vn -0.433884 0.900969 0.000000
vn -0.222521 0.974928 0.000000
vn -0.305212 0.048341 -0.951057
vn -0.275336 0.140291 -0.951057
vn -0.218508 0.218508 -0.951057
vn -0.559017 0.181636 -0.809017
vn -0.140291 0.275336 -0.951057
vn -0.475528 0.345491 -0.809017
vn -0.799057 0.126558 -0.587785
vn -0.048341 0.305212 -0.951057
vn -0.345491 0.475528 -0.809017
vn -0.720839 0.367286 -0.587785
vn -0.181636 0.559017 -0.809017
vn -0.572061 0.572061 -0.587785
vn -0.904508 0.293893 -0.309017
vn -0.367286 0.720839 -0.587785
vn -0.769421 0.559017 -0.309017
vn -0.126558 0.799057 -0.587785
vn -0.559017 0.769421 -0.309017
vn -0.293893 0.904508 -0.309017
vt 0.000000 -1.570796
vt 0.000000 -1.346397
vt 0.000000 -1.121997
vt 0.000000 -0.897598
vt 0.000000 -0.673198
vt 0.000000 -0.448799
vt 0.000000 -0.224399
vt 0.000000 0.000000
vt 1.570796 -1.570796
vt 1.570796 -1.346397
vt 1.570796 -1.121997
vt 1.570796 -0.897598
vt 1.570796 -0.673198
vt 1.570796 -0.448799
vt 1.570796 -0.224399
vt 1.570796 0.000000
vt 0.224399 0.000000
vt 0.448799 0.000000
vt 0.673198 0.000000
vt 0.897598 0.000000
vt 1.121997 0.000000
vt 1.346397 0.000000
vt 0.157080 -1.256637
vt 0.471239 -1.256637
vt 0.785398 -1.256637
vt 0.314159 -0.942478
vt 1.099557 -1.256637
vt 0.628319 -0.942478
vt 0.157080 -0.628319
vt 1.413717 -1.256637
vt 0.942478 -0.942478
vt 0.471239 -0.628319
vt 1.256637 -0.942478
vt 0.785398 -0.628319
vt 0.314159 -0.314159
vt 1.099557 -0.628319
vt 0.628319 -0.314159
vt 1.413717 -0.628319
vt 0.942478 -0.314159
vt 1.256637 -0.314159
f 177/177/177 167/167/167 168/168/168
f 176/176/176 175/175/175 182/182/182
f 183/183/183 162/162/162 163/163/163
f 184/184/184 161/161/161 162/162/162
f 184/184/184 162/162/162 183/183/183
f 185/185/185 169/169/169 161/161/161
f 185/185/185 161/161/161 184/184/184
f 186/186/186 163/163/163 164/164/164
f 186/186/186 183/183/183 163/163/163
f 186/186/186 184/184/184 183/183/183
f 187/187/187 170/170/170 169/169/169
f 187/187/187 169/169/169 185/185/185
f 188/188/188 185/185/185 184/184/184
f 188/188/188 184/184/184 186/186/186
f 189/189/189 164/164/164 165/165/165
f 189/189/189 165/165/165 166/166/166
f 189/189/189 186/186/186 164/164/164
f 190/190/190 171/171/171 170/170/170
f 190/190/190 170/170/170 187/187/187
f 191/191/191 185/185/185 188/188/188
f 191/191/191 187/187/187 185/185/185
f 192/192/192 188/188/188 186/186/186
f 192/192/192 186/186/186 189/189/189
f 193/193/193 172/172/172 171/171/171
f 193/193/193 190/190/190 187/187/187
f 193/193/193 171/171/171 190/190/190
f 193/193/193 187/187/187 191/191/191
f 194/194/194 191/191/191 188/188/188
f 194/194/194 188/188/188 192/192/192
f 195/195/195 166/166/166 167/167/167
f 195/195/195 177/177/177 178/178/178
f 195/195/195 189/189/189 166/166/166
f 195/195/195 192/192/192 189/189/189
f 195/195/195 167/167/167 177/177/177
f 196/196/196 193/193/193 191/191/191
f 196/196/196 191/191/191 194/194/194
f 197/197/197 178/178/178 179/179/179
f 197/197/197 195/195/195 178/178/178
f 197/197/197 194/194/194 192/192/192
f 197/197/197 192/192/192 195/195/195
f 198/198/198 173/173/173 172/172/172
f 198/198/198 174/174/174 173/173/173
f 198/198/198 172/172/172 193/193/193
f 198/198/198 193/193/193 196/196/196
f 199/199/199 179/179/179 180/180/180
f 199/199/199 180/180/180 181/181/181
f 199/199/199 197/197/197 179/179/179
f 199/199/199 196/196/196 194/194/194
f 199/199/199 194/194/194 197/197/197
f 200/200/200 175/175/175 174/174/174
f 200/200/200 181/181/181 182/182/182
f 200/200/200 182/182/182 175/175/175
f 200/200/200 199/199/199 181/181/181
f 200/200/200 174/174/174 198/198/198
f 200/200/200 198/198/198 196/196/196
f 200/200/200 196/196/196 199/199/199
v 5.000000 0.000000 -5.000000
v 3.887395 0.125360 -5.000000
v 2.830581 0.495156 -5.000000
v 1.882551 1.090843 -5.000000
v 1.090843 1.882551 -5.000000
v 0.495156 2.830581 -5.000000
v 0.125360 3.887395 -5.000000
v -0.000000 5.000000 -5.000000
v 5.000000 0.000000 -5.000000
v 5.000000 0.125360 -3.887395
v 5.000000 0.495156 -2.830581
v 5.000000 1.090843 -1.882551
v 5.000000 1.882551 -1.090843
v 5.000000 2.830581 -0.495156
v 5.000000 3.887395 -0.125360
v 5.000000 5.000000 0.000000
v 0.125360 5.000000 -3.887395
v 0.495156 5.000000 -2.830581
v 1.090843 5.000000 -1.882551
v 1.882551 5.000000 -1.090843
v 2.830581 5.000000 -0.495156
v 3.887395 5.000000 -0.125360
v 3.473938 0.244717 -4.758296
v 3.623319 0.244717 -4.298546
v 3.907460 0.244717 -3.907460
v 2.204915 0.954915 -4.091822
v 4.298546 0.244717 -3.623319
v 2.622359 0.954915 -3.272542
v 1.004717 2.061074 -4.367209
v 4.758296 0.244717 -3.473938
v 3.272542 0.954915 -2.622359
v 1.395803 2.061074 -3.163570
v 4.091822 0.954915 -2.204915
v 2.139693 2.061074 -2.139693
v 0.477458 3.454915 -3.530537
v 3.163570 2.061074 -1.395803
v 1.152896 3.454915 -2.204915
v 4.367209 2.061074 -1.004717
v 2.204915 3.454915 -1.152896
v 3.530537 3.454915 -0.477458
vn -0.000000 -1.000000 0.000000
vn -0.222521 -0.974928 0.000000
vn -0.433884 -0.900969 0.000000
vn -0.623490 -0.781832 0.000000
vn -0.781832 -0.623490 0.000000
vn -0.900969 -0.433884 0.000000
vn -0.974928 -0.222521 0.000000
vn -1.000000 0.000000 0.000000
vn -0.000000 -1.000000 0.000000
vn -0.000000 -0.974928 0.222521
vn -0.000000 -0.900969 0.433884
vn -0.000000 -0.781832 0.623490
vn -0.000000 -0.623490 0.781832
vn -0.000000 -0.433884 0.900969
vn -0.000000 -0.222521 0.974928
vn -0.000000 0.000000 1.000000
vn -0.974928 0.000000 0.222521
vn -0.900969 0.000000 0.433884
vn -0.781832 0.000000 0.623490
vn -0.623490 0.000000 0.781832
vn -0.433884 0.000000 0.900969
vn -0.222521 0.000000 0.974928
vn -0.305212 -0.951057 0.048341
vn -0.275336 -0.951057 0.140291
vn -0.218508 -0.951057 0.218508
vn -0.559017 -0.809017 0.181636
vn -0.140291 -0.951057 0.275336
vn -0.475528 -0.809017 0.345491
vn -0.799057 -0.587785 0.126558
vn -0.048341 -0.951057 0.305212
vn -0.345491 -0.809017 0.475528
vn -0.720839 -0.587785 0.367286
vn -0.181636 -0.809017 0.559017
vn -0.572061 -0.587785 0.572061
vn -0.904508 -0.309017 0.293893
vn -0.367286 -0.587785 0.720839
vn -0.769421 -0.309017 0.559017
vn -0.126558 -0.587785 0.799057
vn -0.559017 -0.309017 0.769421
vn -0.293893 -0.309017 0.904508
vt 0.000000 -1.570796
vt 0.000000 -1.346397
vt 0.000000 -1.121997
vt 0.000000 -0.897598
vt 0.000000 -0.673198
vt 0.000000 -0.448799
vt 0.000000 -0.224399
vt 0.000000 0.000000
vt 1.570796 -1.570796
vt 1.570796 -1.346397
vt 1.570796 -1.121997
vt 1.570796 -0.897598
vt 1.570796 -0.673198
vt 1.570796 -0.448799
vt 1.570796 -0.224399
vt 1.570796 0.000000
vt 0.224399 0.000000
vt 0.448799 0.000000
vt 0.673198 0.000000
vt 0.897598 0.000000
vt 1.121997 0.000000
vt 1.346397 0.000000
vt 0.157080 -1.256637
vt 0.471239 -1.256637
vt 0.785398 -1.256637
vt 0.314159 -0.942478
vt 1.099557 -1.256637
vt 0.628319 -0.942478
vt 0.157080 -0.628319
vt 1.413717 -1.256637
vt 0.942478 -0.942478
vt 0.471239 -0.628319
vt 1.256637 -0.942478
vt 0.785398 -0.628319
vt 0.314159 -0.314159
vt 1.099557 -0.628319
vt 0.628319 -0.314159
vt 1.413717 -0.628319
vt 0.942478 -0.314159
vt 1.256637 -0.314159
f 217/217/217 208/208/208 207/207/207
f 216/216/216 222/222/222 215/215/215
f 223/223/223 203/203/203 202/202/202
f 224/224/224 202/202/202 201/201/201
f 224/224/224 223/223/223 202/202/202
f 225/225/225 201/201/201 209/209/209
f 225/225/225 224/224/224 201/201/201
f 226/226/226 204/204/204 203/203/203
f 226/226/226 203/203/203 223/223/223
f 226/226/226 223/223/223 224/224/224
f 227/227/227 209/209/209 210/210/210
f 227/227/227 225/225/225 209/209/209
f 228/228/228 224/224/224 225/225/225
f 228/228/228 226/226/226 224/224/224
f 229/229/229 205/205/205 204/204/204
f 229/229/229 206/206/206 205/205/205
f 229/229/229 204/204/204 226/226/226
f 230/230/230 210/210/210 211/211/211
f 230/230/230 227/227/227 210/210/210
f 231/231/231 228/228/228 225/225/225
f 231/231/231 225/225/225 227/227/227
f 232/232/232 226/226/226 228/228/228
f 232/232/232 229/229/229 226/226/226
f 233/233/233 211/211/211 212/212/212
f 233/233/233 227/227/227 230/230/230
f 233/233/233 230/230/230 211/211/211
f 233/233/233 231/231/231 227/227/227
f 234/234/234 228/228/228 231/231/231
f 234/234/234 232/232/232 228/228/228
f 235/235/235 207/207/207 206/206/206
f 235/235/235 218/218/218 217/217/217
f 235/235/235 206/206/206 229/229/229
f 235/235/235 229/229/229 232/232/232
f 235/235/235 217/217/217 207/207/207
f 236/236/236 231/231/231 233/233/233
f 236/236/236 234/234/234 231/231/231
f 237/237/237 219/219/219 218/218/218
f 237/237/237 220/220/220 219/219/219
f 237/237/237 218/218/218 235/235/235
f 237/237/237 232/232/232 234/234/234
f 237/237/237 235/235/235 232/232/232
f 238/238/238 212/212/212 213/213/213
f 238/238/238 213/213/213 214/214/214
f 238/238/238 233/233/233 212/212/212
f 238/238/238 236/236/236 233/233/233
f 239/239/239 221/221/221 220/220/220
f 239/239/239 220/220/220 237/237/237
f 239/239/239 234/234/234 236/236/236
f 239/239/239 237/237/237 234/234/234
f 240/240/240 214/214/214 215/215/215
f 240/240/240 222/222/222 221/221/221
f 240/240/240 221/221/221 239/239/239
f 240/240/240 215/215/215 222/222/222
f 240/240/240 238/238/238 214/214/214
f 240/240/240 236/236/236 238/238/238
f 240/240/240 239/239/239 236/236/236
v 5.000000 0.000000 -5.000000
v 5.000000 -0.000000 -65.000000
v 145.000000 0.000000 -5.000000
v 145.000000 -0.000000 -65.000000
vn 0.000000 -1.000000 0.000000
vn 0.000000 -1.000000 0.000000
vn 0.000000 -1.000000 0.000000
vn 0.000000 -1.000000 0.000000
vt 5.000000 5.000000
vt 5.000000 65.000000
vt 145.000000 5.000000
vt 145.000000 65.000000
f 244/244/244 241/241/241 242/242/242
f 244/244/244 243/243/243 241/241/241
v 5.000000 5.000000 -70.000000
v 5.000000 3.832774 -69.861847
v 5.000000 2.730047 -69.455032
v 5.000000 1.752760 -68.802032
v 5.000000 0.954915 -67.938927
v 5.000000 0.380602 -66.913414
v 5.000000 0.096073 -65.975449
v 5.000000 -0.000000 -65.000000
v 145.000000 -0.000000 -65.000000
v 145.000000 5.000000 -70.000000
v 145.000000 3.832774 -69.861847
v 145.000000 2.730047 -69.455032
v 145.000000 1.752760 -68.802032
v 145.000000 0.954915 -67.938927
v 145.000000 0.380602 -66.913414
v 145.000000 0.096073 -65.975449
vn 0.000000 0.000000 -1.000000
vn 0.000000 -0.233445 -0.972370
vn 0.000000 -0.453990 -0.891007
vn 0.000000 -0.649448 -0.760406
vn 0.000000 -0.809017 -0.587785
vn 0.000000 -0.923880 -0.382683
vn 0.000000 -0.980785 -0.195090
vn 0.000000 -1.000000 -0.000000
vn 0.000000 -1.000000 -0.000000
vn 0.000000 0.000000 -1.000000
vn 0.000000 -0.233445 -0.972370
vn 0.000000 -0.453990 -0.891007
vn 0.000000 -0.649448 -0.760406
vn 0.000000 -0.809017 -0.587785
vn 0.000000 -0.923880 -0.382683
vn 0.000000 -0.980785 -0.195090
vt 0.000000 5.000000
vt 0.235619 5.000000
vt 0.471239 5.000000
vt 0.706858 5.000000
vt 0.942478 5.000000
vt 1.178097 5.000000
vt 1.374447 5.000000
vt 1.570796 5.000000
vt 1.570796 145.000000
vt 0.000000 145.000000
vt 0.235619 145.000000
vt 0.471239 145.000000
vt 0.706858 145.000000
vt 0.942478 145.000000
vt 1.178097 145.000000
vt 1.374447 145.000000
f 255/255/255 246/246/246 245/245/245
f 255/255/255 247/247/247 246/246/246
f 255/255/255 245/245/245 254/254/254
f 256/256/256 248/248/248 247/247/247
f 256/256/256 247/247/247 255/255/255
f 257/257/257 248/248/248 256/256/256
f 258/258/258 249/249/249 248/248/248
f 258/258/258 248/248/248 257/257/257
f 259/259/259 250/250/250 249/249/249
f 259/259/259 249/249/249 258/258/258
f 260/260/260 251/251/251 250/250/250
f 260/260/260 252/252/252 251/251/251
f 260/260/260 250/250/250 259/259/259
f 253/253/253 252/252/252 260/260/260
v 5.000000 0.000000 -5.000000
v 5.000000 0.125360 -3.887395
v 5.000000 0.495156 -2.830581
v 5.000000 1.090843 -1.882551
v 5.000000 1.882551 -1.090843
v 5.000000 2.830581 -0.495156
v 5.000000 3.887395 -0.125360
v 5.000000 5.000000 0.000000
v 145.000000 0.000000 -5.000000
v 145.000000 0.125360 -3.887395
v 145.000000 0.495156 -2.830581
v 145.000000 1.090843 -1.882551
v 145.000000 1.882551 -1.090843
v 145.000000 2.830581 -0.495156
v 145.000000 3.887395 -0.125360
v 145.000000 5.000000 0.000000
vn 0.000000 -1.000000 0.000000
vn 0.000000 -0.974928 0.222521
vn 0.000000 -0.900969 0.433884
vn 0.000000 -0.781832 0.623490
vn 0.000000 -0.623490 0.781832
vn 0.000000 -0.433884 0.900969
vn 0.000000 -0.222521 0.974928
vn 0.000000 0.000000 1.000000
vn 0.000000 -1.000000 0.000000
vn 0.000000 -0.974928 0.222521
vn 0.000000 -0.900969 0.433884
vn 0.000000 -0.781832 0.623490
vn 0.000000 -0.623490 0.781832
vn 0.000000 -0.433884 0.900969
vn 0.000000 -0.222521 0.974928
vn 0.000000 0.000000 1.000000
vt 1.570796 5.000000
vt 1.346397 5.000000
vt 1.121997 5.000000
vt 0.897598 5.000000
vt 0.673198 5.000000
vt 0.448799 5.000000
vt 0.224399 5.000000
vt 0.000000 5.000000
vt 1.570796 145.000000
vt 1.346397 145.000000
vt 1.121997 145.000000
vt 0.897598 145.000000
vt 0.673198 145.000000
vt 0.448799 145.000000
vt 0.224399 145.000000
vt 0.000000 145.000000
f 275/275/275 268/268/268 267/267/267
f 275/275/275 276/276/276 268/268/268
f 274/274/274 267/267/267 266/266/266
f 274/274/274 275/275/275 267/267/267
f 273/273/273 266/266/266 265/265/265
f 273/273/273 274/274/274 266/266/266
f 272/272/272 265/265/265 264/264/264
f 272/272/272 273/273/273 265/265/265
f 271/271/271 264/264/264 263/263/263
f 271/271/271 272/272/272 264/264/264
f 270/270/270 263/263/263 262/262/262
f 270/270/270 271/271/271 263/263/263
f 269/269/269 262/262/262 261/261/261
f 269/269/269 270/270/270 262/262/262
v 150.000000 8.000000 -5.000000
v 149.861847 8.000000 -3.832774
v 149.455032 8.000000 -2.730047
v 148.802032 8.000000 -1.752760
v 147.938919 8.000000 -0.954915
v 146.913422 8.000000 -0.380602
v 145.975449 8.000000 -0.096073
v 145.000000 8.000000 0.000000
v 145.000000 3.000000 0.000000
v 145.000000 4.167226 -0.138150
v 145.000000 5.269952 -0.544967
v 145.000000 6.247240 -1.197970
v 145.000000 7.045085 -2.061074
v 145.000000 7.619398 -3.086583
v 145.000000 7.903926 -4.024549
v 145.000000 8.000000 -5.000000
v 146.167221 7.861850 -5.000000
v 147.269958 7.455033 -5.000000
v 148.247238 6.802030 -5.000000
v 149.045090 5.938926 -5.000000
v 149.619400 4.913417 -5.000000
v 149.903931 3.975451 -5.000000
v 150.000000 3.000000 -5.000000
vn 0.986158 0.149736 -0.071216
vn 0.384001 0.686890 0.617029
vn 0.669859 0.740473 0.054662
vn 0.798297 0.460530 0.388115
vn 0.171740 0.544538 0.820965
vn 0.136797 0.816335 0.561145
vn 0.693678 0.588507 0.415296
vn -0.069004 0.156843 0.985210
vn -0.021949 0.026338 0.999412
vn 0.098742 0.136093 0.985763
vn 0.240020 -0.105557 0.965012
vn 0.421004 -0.041562 0.906106
vn 0.222188 0.956022 -0.191455
vn -0.029441 0.999109 0.030236
vn -0.012709 0.981577 0.190643
vn 0.049925 0.997503 0.049951
vn 0.188839 0.981421 -0.033953
vn -0.082475 0.996418 0.018675
vn -0.037829 0.911430 0.409713
vn 0.936901 -0.188096 0.294680
vn 0.974062 -0.004953 0.226228
vn 0.988901 0.136480 0.058723
vn 0.999441 0.025401 -0.021735
vt 3.542735 -1.228942
vt 2.461209 -0.756007
vt 1.428247 -0.504425
vt 0.396454 -0.396168
vt -0.737577 -0.420268
vt -1.725394 -0.566538
vt -2.647279 -0.826928
vt -3.528219 -1.228942
vt -3.544532 2.862982
vt -3.445184 1.861103
vt -3.191855 0.893677
vt -2.734200 -0.195408
vt -1.984315 -1.418555
vt -1.326650 -2.203670
vt -0.719848 -2.766208
vt -0.009169 -3.260710
vt 0.840720 -2.655757
vt 1.537323 -1.966708
vt 2.233646 -1.053153
vt 2.921339 0.211467
vt 3.281926 1.212296
vt 3.462544 2.028773
vt 3.526422 2.862982
f 296/296/296 299/299/299 297/297/297
f 299/299/299 298/298/298 297/297/297
f 296/296/296 277/277/277 299/299/299
v 150.000000 5.000000 -5.000000
v 150.000000 8.000000 -5.000000
v 149.874634 5.000000 -3.887395
v 149.504837 5.000000 -2.830581
v 148.909164 5.000000 -1.882551
v 148.117447 5.000000 -1.090843
v 147.169418 5.000000 -0.495156
v 146.112610 5.000000 -0.125360
v 145.000000 5.000000 0.000000
v 145.000000 8.000000 0.000000
v 149.861847 8.000000 -3.832774
v 149.455032 8.000000 -2.730047
v 148.802032 8.000000 -1.752760
v 147.938919 8.000000 -0.954915
v 146.913422 8.000000 -0.380602
v 145.975449 8.000000 -0.096073
vn 1.000000 0.000000 0.000000
vn 1.000000 0.000000 -0.000000
vn 0.974928 0.000000 0.222521
vn 0.900969 0.000000 0.433884
vn 0.781832 0.000000 0.623490
vn 0.623490 0.000000 0.781832
vn 0.433884 0.000000 0.900969
vn 0.222521 0.000000 0.974928
vn 0.000000 0.000000 1.000000
vn 0.000000 0.000000 1.000000
vn 0.972370 0.000000 0.233445
vn 0.891007 0.000000 0.453990
vn 0.760406 0.000000 0.649448
vn 0.587785 0.000000 0.809017
vn 0.382683 0.000000 0.923880
vn 0.195090 0.000000 0.980785
vt 0.000000 5.000000
vt -0.000000 8.000000
vt 0.224399 5.000000
vt 0.448799 5.000000
vt 0.673198 5.000000
vt 0.897598 5.000000
vt 1.121997 5.000000
vt 1.346397 5.000000
vt 1.570796 5.000000
vt 1.570796 8.000000
vt 0.235619 8.000000
vt 0.471239 8.000000
vt 0.706858 8.000000
vt 0.942478 8.000000
vt 1.178097 8.000000
vt 1.374447 8.000000
f 301/301/301 302/302/302 300/300/300
f 310/310/310 303/303/303 302/302/302
f 310/310/310 302/302/302 301/301/301
f 311/311/311 304/304/304 303/303/303
f 311/311/311 303/303/303 310/310/310
f 312/312/312 305/305/305 304/304/304
f 312/312/312 304/304/304 311/311/311
f 313/313/313 306/306/306 305/305/305
f 313/313/313 305/305/305 312/312/312
f 314/314/314 307/307/307 306/306/306
f 314/314/314 306/306/306 313/313/313
f 315/315/315 308/308/308 307/307/307
f 315/315/315 307/307/307 314/314/314
f 309/309/309 308/308/308 315/315/315
v 150.000000 0.000000 0.000000
v 150.000000 8.000000 0.000000
v 150.000000 0.000000 -70.000000
v 150.000000 8.000000 -70.000000
v 150.000000 3.000000 -5.000000
v 150.000000 8.000000 -5.000000
v 150.000000 5.000000 -5.000000
v 150.000000 5.000000 -65.000000
v 150.000000 0.000000 -65.000000
v 150.000000 3.000000 -65.000000
vn 1.000000 0.000000 0.000000
vn 1.000000 0.000000 0.000000
vn 1.000000 0.000000 0.000000
vn 1.000000 0.000000 0.000000
vn 1.000000 0.000000 0.000000
vn 1.000000 0.000000 0.000000
vn 1.000000 0.000000 0.000000
vn 1.000000 0.000000 0.000000
vn 1.000000 0.000000 0.000000
vn 1.000000 0.000000 0.000000
vt 0.000000 0.000000
vt 8.000000 0.000000
vt 0.000000 -70.000000
vt 8.000000 -70.000000
vt 3.000000 -5.000000
vt 8.000000 -5.000000
vt 5.000000 -5.000000
vt 5.000000 -65.000000
vt 0.000000 -65.000000
vt 3.000000 -65.000000
f 318/318/318 319/319/319 317/317/317
f 318/318/318 317/317/317 316/316/316
v 5.000000 3.000000 -70.000000
v 5.000000 4.112605 -69.874641
v 5.000000 5.169419 -69.504845
v 5.000000 6.117449 -68.909157
v 5.000000 6.909157 -68.117447
v 5.000000 7.504844 -67.169418
v 5.000000 7.874640 -66.112602
v 5.000000 8.000000 -65.000000
v 145.000000 8.000000 -65.000000
v 145.000000 3.000000 -70.000000
v 145.000000 4.112605 -69.874641
v 145.000000 5.169419 -69.504845
v 145.000000 6.117449 -68.909157
v 145.000000 6.909157 -68.117447
v 145.000000 7.504844 -67.169418
v 145.000000 7.874640 -66.112602
vn 0.000000 0.000000 -1.000000
vn 0.000000 0.222521 -0.974928
vn 0.000000 0.433884 -0.900969
vn 0.000000 0.623490 -0.781832
vn 0.000000 0.781832 -0.623490
vn 0.000000 0.900969 -0.433884
vn 0.000000 0.974928 -0.222521
vn 0.000000 1.000000 -0.000000
vn 0.000000 1.000000 -0.000000
vn 0.000000 0.000000 -1.000000
vn 0.000000 0.222521 -0.974928
vn 0.000000 0.433884 -0.900969
vn 0.000000 0.623490 -0.781832
vn 0.000000 0.781832 -0.623490
vn 0.000000 0.900969 -0.433884
vn 0.000000 0.974928 -0.222521
vt 0.000000 5.000000
vt 0.224399 5.000000
vt 0.448799 5.000000
vt 0.673198 5.000000
vt 0.897598 5.000000
vt 1.121997 5.000000
vt 1.346397 5.000000
vt 1.570796 5.000000
vt 1.570796 145.000000
vt 0.000000 145.000000
vt 0.224399 145.000000
vt 0.448799 145.000000
vt 0.673198 145.000000
vt 0.897598 145.000000
vt 1.121997 145.000000
vt 1.346397 145.000000
f 336/336/336 326/326/326 327/327/327
f 336/336/336 335/335/335 326/326/326
f 337/337/337 327/327/327 328/328/328
f 337/337/337 336/336/336 327/327/327
f 338/338/338 328/328/328 329/329/329
f 338/338/338 337/337/337 328/328/328
f 339/339/339 329/329/329 330/330/330
f 339/339/339 338/338/338 329/329/329
f 340/340/340 330/330/330 331/331/331
f 340/340/340 339/339/339 330/330/330
f 341/341/341 331/331/331 332/332/332
f 341/341/341 340/340/340 331/331/331
f 334/334/334 332/332/332 333/333/333
f 334/334/334 341/341/341 332/332/332
v 150.000000 0.000000 -65.000000
v 149.861847 0.000000 -66.167229
v 149.455032 0.000000 -67.269951
v 148.802032 0.000000 -68.247238
v 147.938919 0.000000 -69.045082
v 146.913422 0.000000 -69.619400
v 145.975449 0.000000 -69.903923
v 145.000000 0.000000 -70.000000
v 150.000000 5.000000 -65.000000
v 145.000000 -0.000000 -65.000000
v 146.167221 0.138150 -65.000000
v 147.269958 0.544967 -65.000000
v 148.247238 1.197970 -65.000000
v 149.045090 2.061074 -65.000000
v 149.619400 3.086583 -65.000000
v 149.903931 4.024549 -65.000000
v 145.000000 5.000000 -70.000000
v 145.000000 3.832774 -69.861847
v 145.000000 2.730047 -69.455032
v 145.000000 1.752760 -68.802032
v 145.000000 0.954915 -67.938927
v 145.000000 0.380602 -66.913414
v 145.000000 0.096073 -65.975449
vn 0.986147 -0.149524 0.071817
vn 0.413000 -0.668333 -0.618678
vn 0.689221 -0.721538 -0.066018
vn 0.802899 -0.438997 -0.403281
vn 0.190260 -0.525420 -0.829298
vn 0.162995 -0.794588 -0.584861
vn 0.687771 -0.555477 -0.467351
vn -0.071817 -0.149524 -0.986147
vn 0.999424 -0.024990 0.022956
vn 0.044038 -0.998059 -0.044038
vn 0.197210 -0.979890 0.030384
vn -0.092479 -0.995445 -0.023187
vn -0.038329 -0.907895 -0.417442
vn 0.936145 0.190528 -0.295518
vn 0.972758 0.000202 -0.231821
vn 0.989134 -0.134637 -0.059046
vn -0.022956 -0.024990 -0.999424
vn 0.100824 -0.136885 -0.985443
vn 0.249818 0.103818 -0.962711
vn 0.413985 0.057928 -0.908439
vn 0.217804 -0.955112 0.200807
vn -0.029055 -0.999290 -0.023976
vn -0.011118 -0.980162 -0.197884
vt 3.535534 1.216312
vt 2.459497 0.739846
vt 1.423025 0.483041
vt 0.384006 0.371987
vt -0.751595 0.396366
vt -1.744211 0.546000
vt -2.669972 0.813142
vt -3.535534 1.216312
vt 3.535534 -2.847159
vt -0.000000 3.276434
vt 0.844264 2.666880
vt 1.540901 1.972192
vt 2.241247 1.050436
vt 2.926956 -0.213139
vt 3.286699 -1.206605
vt 3.468972 -2.019405
vt -3.535534 -2.847159
vt -3.439839 -1.852858
vt -3.189677 -0.891568
vt -2.740376 0.182665
vt -1.987022 1.415311
vt -1.323131 2.209698
vt -0.710818 2.778838
f 347/347/347 346/346/346 345/345/345
f 364/364/364 363/363/363 351/351/351
f 351/351/351 363/363/363 352/352/352
f 361/361/361 358/358/358 349/349/349
v 150.000000 0.000000 -65.000000
v 149.861847 0.000000 -66.167229
v 149.455032 0.000000 -67.269951
v 148.802032 0.000000 -68.247238
v 147.938919 0.000000 -69.045082
v 146.913422 0.000000 -69.619400
v 145.975449 0.000000 -69.903923
v 145.000000 0.000000 -70.000000
v 145.000000 3.000000 -70.000000
v 146.112610 3.000000 -69.874641
v 147.169418 3.000000 -69.504845
v 148.117447 3.000000 -68.909157
v 148.909164 3.000000 -68.117447
v 149.504837 3.000000 -67.169418
v 149.874634 3.000000 -66.112602
v 150.000000 3.000000 -65.000000
vn 1.000000 0.000000 0.000000
vn 0.972370 0.000000 -0.233445
vn 0.891007 0.000000 -0.453990
vn 0.760406 0.000000 -0.649448
vn 0.587785 0.000000 -0.809017
vn 0.382683 0.000000 -0.923880
vn 0.195090 0.000000 -0.980785
vn 0.000000 0.000000 -1.000000
vn 0.000000 0.000000 -1.000000
vn 0.222521 0.000000 -0.974928
vn 0.433884 0.000000 -0.900969
vn 0.623490 0.000000 -0.781832
vn 0.781832 0.000000 -0.623490
vn 0.900969 0.000000 -0.433884
vn 0.974928 0.000000 -0.222521
vn 1.000000 0.000000 0.000000
vt 0.000000 0.000000
vt 0.235619 0.000000
vt 0.471239 0.000000
vt 0.706858 0.000000
vt 0.942478 0.000000
vt 1.178097 0.000000
vt 1.374447 0.000000
vt 1.570796 0.000000
vt 1.570796 3.000000
vt 1.346397 3.000000
vt 1.121997 3.000000
vt 0.897598 3.000000
vt 0.673198 3.000000
vt 0.448799 3.000000
vt 0.224399 3.000000
vt 0.000000 3.000000
f 379/379/379 365/365/365 366/366/366
f 379/379/379 380/380/380 365/365/365
f 378/378/378 366/366/366 367/367/367
f 378/378/378 379/379/379 366/366/366
f 377/377/377 367/367/367 368/368/368
f 377/377/377 378/378/378 367/367/367
f 376/376/376 368/368/368 369/369/369
f 376/376/376 377/377/377 368/368/368
f 375/375/375 369/369/369 370/370/370
f 375/375/375 376/376/376 369/369/369
f 374/374/374 370/370/370 371/371/371
f 374/374/374 375/375/375 370/370/370
f 373/373/373 371/371/371 372/372/372
f 373/373/373 374/374/374 371/371/371
v 145.000000 8.000000 -5.000000
v 146.167221 7.861850 -5.000000
v 147.269958 7.455033 -5.000000
v 148.247238 6.802030 -5.000000
v 149.045090 5.938926 -5.000000
v 149.619400 4.913417 -5.000000
v 149.903931 3.975451 -5.000000
v 150.000000 3.000000 -5.000000
v 145.000000 8.000000 -65.000000
v 150.000000 3.000000 -65.000000
v 149.874634 4.112605 -65.000000
v 149.504837 5.169419 -65.000000
v 148.909164 6.117449 -65.000000
v 148.117447 6.909157 -65.000000
v 147.169418 7.504844 -65.000000
v 146.112610 7.874640 -65.000000
vn 0.000000 1.000000 0.000000
vn 0.233445 0.972370 0.000000
vn 0.453990 0.891007 0.000000
vn 0.649448 0.760406 0.000000
vn 0.809017 0.587785 0.000000
vn 0.923880 0.382683 0.000000
vn 0.980785 0.195090 0.000000
vn 1.000000 0.000000 0.000000
vn 0.000000 1.000000 0.000000
vn 1.000000 0.000000 0.000000
vn 0.974928 0.222521 0.000000
vn 0.900969 0.433884 0.000000
vn 0.781832 0.623490 0.000000
vn 0.623490 0.781832 0.000000
vn 0.433884 0.900969 0.000000
vn 0.222521 0.974928 0.000000
vt 1.570796 5.000000
vt 1.335177 5.000000
vt 1.099557 5.000000
vt 0.863938 5.000000
vt 0.628319 5.000000
vt 0.392699 5.000000
vt 0.196349 5.000000
vt 0.000000 5.000000
vt 1.570796 65.000000
vt 0.000000 65.000000
vt 0.224399 65.000000
vt 0.448799 65.000000
vt 0.673198 65.000000
vt 0.897598 65.000000
vt 1.121997 65.000000
vt 1.346397 65.000000
f 390/390/390 387/387/387 388/388/388
f 391/391/391 386/386/386 387/387/387
f 391/391/391 387/387/387 390/390/390
f 392/392/392 385/385/385 386/386/386
f 392/392/392 386/386/386 391/391/391
f 393/393/393 384/384/384 385/385/385
f 393/393/393 385/385/385 392/392/392
f 394/394/394 383/383/383 384/384/384
f 394/394/394 384/384/384 393/393/393
f 395/395/395 382/382/382 383/383/383
f 395/395/395 383/383/383 394/394/394
f 396/396/396 381/381/381 382/382/382
f 396/396/396 382/382/382 395/395/395
f 389/389/389 381/381/381 396/396/396
v 145.000000 0.000000 -5.000000
v 146.112610 0.125360 -5.000000
v 147.169418 0.495156 -5.000000
v 148.117447 1.090843 -5.000000
v 148.909164 1.882551 -5.000000
v 149.504837 2.830581 -5.000000
v 149.874634 3.887395 -5.000000
v 150.000000 5.000000 -5.000000
v 145.000000 -0.000000 -65.000000
v 146.167221 0.138150 -65.000000
v 147.269958 0.544967 -65.000000
v 148.247238 1.197970 -65.000000
v 149.045090 2.061074 -65.000000
v 149.619400 3.086583 -65.000000
v 149.903931 4.024549 -65.000000
v 150.000000 5.000000 -65.000000
vn 0.000000 -1.000000 0.000000
vn 0.222521 -0.974928 0.000000
vn 0.433884 -0.900969 0.000000
vn 0.623490 -0.781832 0.000000
vn 0.781832 -0.623490 0.000000
vn 0.900969 -0.433884 0.000000
vn 0.974928 -0.222521 0.000000
vn 1.000000 0.000000 0.000000
vn 0.000000 -1.000000 0.000000
vn 0.233445 -0.972370 0.000000
vn 0.453990 -0.891007 0.000000
vn 0.649448 -0.760406 0.000000
vn 0.809017 -0.587785 0.000000
vn 0.923880 -0.382683 0.000000
vn 0.980785 -0.195090 0.000000
vn 1.000000 0.000000 0.000000
vt 1.570796 5.000000
vt 1.346397 5.000000
vt 1.121997 5.000000
vt 0.897598 5.000000
vt 0.673198 5.000000
vt 0.448799 5.000000
vt 0.224399 5.000000
vt 0.000000 5.000000
vt 1.570796 65.000000
vt 1.335177 65.000000
vt 1.099557 65.000000
vt 0.863938 65.000000
vt 0.628319 65.000000
vt 0.392699 65.000000
vt 0.196349 65.000000
vt 0.000000 65.000000
f 411/411/411 404/404/404 403/403/403
f 411/411/411 412/412/412 404/404/404
f 410/410/410 403/403/403 402/402/402
f 410/410/410 411/411/411 403/403/403
f 409/409/409 402/402/402 401/401/401
f 409/409/409 410/410/410 402/402/402
f 408/408/408 401/401/401 400/400/400
f 408/408/408 409/409/409 401/401/401
f 407/407/407 400/400/400 399/399/399
f 407/407/407 408/408/408 400/400/400
f 406/406/406 399/399/399 398/398/398
f 406/406/406 407/407/407 399/399/399
f 405/405/405 398/398/398 397/397/397
f 405/405/405 406/406/406 398/398/398
v 145.000000 0.000000 -5.000000
v 146.112610 0.125360 -5.000000
v 147.169418 0.495156 -5.000000
v 148.117447 1.090843 -5.000000
v 148.909164 1.882551 -5.000000
v 149.504837 2.830581 -5.000000
v 149.874634 3.887395 -5.000000
v 150.000000 5.000000 -5.000000
v 145.000000 0.000000 -5.000000
v 145.000000 0.125360 -3.887395
v 145.000000 0.495156 -2.830581
v 145.000000 1.090843 -1.882551
v 145.000000 1.882551 -1.090843
v 145.000000 2.830581 -0.495156
v 145.000000 3.887395 -0.125360
v 145.000000 5.000000 0.000000
v 149.874634 5.000000 -3.887395
v 149.504837 5.000000 -2.830581
v 148.909164 5.000000 -1.882551
v 148.117447 5.000000 -1.090843
v 147.169418 5.000000 -0.495156
v 146.112610 5.000000 -0.125360
v 146.526062 0.244717 -4.758296
v 146.376678 0.244717 -4.298546
v 146.092545 0.244717 -3.907460
v 147.795090 0.954915 -4.091822
v 145.701447 0.244717 -3.623319
v 147.377640 0.954915 -3.272542
v 148.995285 2.061074 -4.367209
v 145.241699 0.244717 -3.473938
v 146.727463 0.954915 -2.622359
v 148.604202 2.061074 -3.163570
v 145.908173 0.954915 -2.204915
v 147.860306 2.061074 -2.139693
v 149.522537 3.454915 -3.530537
v 146.836426 2.061074 -1.395803
v 148.847107 3.454915 -2.204915
v 145.632797 2.061074 -1.004717
v 147.795090 3.454915 -1.152896
v 146.469467 3.454915 -0.477458
vn 0.000000 -1.000000 0.000000
vn 0.222521 -0.974928 0.000000
vn 0.433884 -0.900969 0.000000
vn 0.623490 -0.781832 0.000000
vn 0.781832 -0.623490 0.000000
vn 0.900969 -0.433884 0.000000
vn 0.974928 -0.222521 0.000000
vn 1.000000 0.000000 0.000000
vn 0.000000 -1.000000 0.000000
vn 0.000000 -0.974928 0.222521
vn 0.000000 -0.900969 0.433884
vn 0.000000 -0.781832 0.623490
vn 0.000000 -0.623490 0.781832
vn 0.000000 -0.433884 0.900969
vn 0.000000 -0.222521 0.974928
vn 0.000000 0.000000 1.000000
vn 0.974928 0.000000 0.222521
vn 0.900969 0.000000 0.433884
vn 0.781832 0.000000 0.623490
vn 0.623490 0.000000 0.781832
vn 0.433884 0.000000 0.900969
vn 0.222521 0.000000 0.974928
vn 0.305212 -0.951057 0.048341
vn 0.275336 -0.951057 0.140291
vn 0.218508 -0.951057 0.218508
vn 0.559017 -0.809017 0.181636
vn 0.140291 -0.951057 0.275336
vn 0.475528 -0.809017 0.345491
vn 0.799057 -0.587785 0.126558
vn 0.048341 -0.951057 0.305212
vn 0.345491 -0.809017 0.475528
vn 0.720839 -0.587785 0.367286
vn 0.181636 -0.809017 0.559017
vn 0.572061 -0.587785 0.572061
vn 0.904508 -0.309017 0.293893
vn 0.367286 -0.587785 0.720839
vn 0.769421 -0.309017 0.559017
vn 0.126558 -0.587785 0.799057
vn 0.559017 -0.309017 0.769421
vn 0.293893 -0.309017 0.904508
vt 0.000000 -1.570796
vt 0.000000 -1.346397
vt 0.000000 -1.121997
vt 0.000000 -0.897598
vt 0.000000 -0.673198
vt 0.000000 -0.448799
vt 0.000000 -0.224399
vt 0.000000 0.000000
vt 1.570796 -1.570796
vt 1.570796 -1.346397
vt 1.570796 -1.121997
vt 1.570796 -0.897598
vt 1.570796 -0.673198
vt 1.570796 -0.448799
vt 1.570796 -0.224399
vt 1.570796 0.000000
vt 0.224399 0.000000
vt 0.448799 0.000000
vt 0.673198 0.000000
vt 0.897598 0.000000
vt 1.121997 0.000000
vt 1.346397 0.000000
vt 0.157080 -1.256637
vt 0.471239 -1.256637
vt 0.785398 -1.256637
vt 0.314159 -0.942478
vt 1.099557 -1.256637
vt 0.628319 -0.942478
vt 0.157080 -0.628319
vt 1.413717 -1.256637
vt 0.942478 -0.942478
vt 0.471239 -0.628319
vt 1.256637 -0.942478
vt 0.785398 -0.628319
vt 0.314159 -0.314159
vt 1.099557 -0.628319
vt 0.628319 -0.314159
vt 1.413717 -0.628319
vt 0.942478 -0.314159
vt 1.256637 -0.314159
f 429/429/429 419/419/419 420/420/420
f 428/428/428 427/427/427 434/434/434
f 435/435/435 414/414/414 415/415/415
f 436/436/436 413/413/413 414/414/414
f 436/436/436 414/414/414 435/435/435
f 437/437/437 421/421/421 413/413/413
f 437/437/437 413/413/413 436/436/436
f 438/438/438 415/415/415 416/416/416
f 438/438/438 435/435/435 415/415/415
f 438/438/438 436/436/436 435/435/435
f 439/439/439 422/422/422 421/421/421
f 439/439/439 421/421/421 437/437/437
f 440/440/440 437/437/437 436/436/436
f 440/440/440 436/436/436 438/438/438
f 441/441/441 416/416/416 417/417/417
f 441/441/441 417/417/417 418/418/418
f 441/441/441 438/438/438 416/416/416
f 442/442/442 423/423/423 422/422/422
f 442/442/442 422/422/422 439/439/439
f 443/443/443 437/437/437 440/440/440
f 443/443/443 439/439/439 437/437/437
f 444/444/444 440/440/440 438/438/438
f 444/444/444 438/438/438 441/441/441
f 445/445/445 424/424/424 423/423/423
f 445/445/445 442/442/442 439/439/439
f 445/445/445 423/423/423 442/442/442
f 445/445/445 439/439/439 443/443/443
f 446/446/446 443/443/443 440/440/440
f 446/446/446 440/440/440 444/444/444
f 447/447/447 418/418/418 419/419/419
f 447/447/447 429/429/429 430/430/430
f 447/447/447 441/441/441 418/418/418
f 447/447/447 444/444/444 441/441/441
f 447/447/447 419/419/419 429/429/429
f 448/448/448 445/445/445 443/443/443
f 448/448/448 443/443/443 446/446/446
f 449/449/449 430/430/430 431/431/431
f 449/449/449 447/447/447 430/430/430
f 449/449/449 446/446/446 444/444/444
f 449/449/449 444/444/444 447/447/447
f 450/450/450 425/425/425 424/424/424
f 450/450/450 426/426/426 425/425/425
f 450/450/450 424/424/424 445/445/445
f 450/450/450 445/445/445 448/448/448
f 451/451/451 431/431/431 432/432/432
f 451/451/451 432/432/432 433/433/433
f 451/451/451 449/449/449 431/431/431
f 451/451/451 448/448/448 446/446/446
f 451/451/451 446/446/446 449/449/449
f 452/452/452 427/427/427 426/426/426
f 452/452/452 433/433/433 434/434/434
f 452/452/452 434/434/434 427/427/427
f 452/452/452 451/451/451 433/433/433
f 452/452/452 426/426/426 450/450/450
f 452/452/452 450/450/450 448/448/448
f 452/452/452 448/448/448 451/451/451
v 145.000000 3.000000 -70.000000
v 146.112610 3.000000 -69.874641
v 147.169418 3.000000 -69.504845
v 148.117447 3.000000 -68.909157
v 148.909164 3.000000 -68.117447
v 149.504837 3.000000 -67.169418
v 149.874634 3.000000 -66.112602
v 150.000000 3.000000 -65.000000
v 145.000000 3.000000 -70.000000
v 145.000000 4.112605 -69.874641
v 145.000000 5.169419 -69.504845
v 145.000000 6.117449 -68.909157
v 145.000000 6.909157 -68.117447
v 145.000000 7.504844 -67.169418
v 145.000000 7.874640 -66.112602
v 145.000000 8.000000 -65.000000
v 149.874634 4.112605 -65.000000
v 149.504837 5.169419 -65.000000
v 148.909164 6.117449 -65.000000
v 148.117447 6.909157 -65.000000
v 147.169418 7.504844 -65.000000
v 146.112610 7.874640 -65.000000
v 146.526062 3.241704 -69.755280
v 146.376678 3.701454 -69.755280
v 146.092545 4.092540 -69.755280
v 147.795090 3.908178 -69.045082
v 145.701447 4.376681 -69.755280
v 147.377640 4.727458 -69.045082
v 148.995285 3.632791 -67.938927
v 145.241699 4.526062 -69.755280
v 146.727463 5.377641 -69.045082
v 148.604202 4.836430 -67.938927
v 145.908173 5.795085 -69.045082
v 147.860306 5.860307 -67.938927
v 149.522537 4.469463 -66.545082
v 146.836426 6.604197 -67.938927
v 148.847107 5.795085 -66.545082
v 145.632797 6.995283 -67.938927
v 147.795090 6.847105 -66.545082
v 146.469467 7.522542 -66.545082
vn 0.000000 0.000000 -1.000000
vn 0.222521 0.000000 -0.974928
vn 0.433884 0.000000 -0.900969
vn 0.623490 0.000000 -0.781832
vn 0.781832 0.000000 -0.623490
vn 0.900969 0.000000 -0.433884
vn 0.974928 0.000000 -0.222521
vn 1.000000 0.000000 0.000000
vn 0.000000 0.000000 -1.000000
vn 0.000000 0.222521 -0.974928
vn 0.000000 0.433884 -0.900969
vn 0.000000 0.623490 -0.781832
vn 0.000000 0.781832 -0.623490
vn 0.000000 0.900969 -0.433884
vn 0.000000 0.974928 -0.222521
vn 0.000000 1.000000 0.000000
vn 0.974928 0.222521 0.000000
vn 0.900969 0.433884 0.000000
vn 0.781832 0.623490 0.000000
vn 0.623490 0.781832 0.000000
vn 0.433884 0.900969 0.000000
vn 0.222521 0.974928 0.000000
vn 0.305212 0.048341 -0.951057
vn 0.275336 0.140291 -0.951057
vn 0.218508 0.218508 -0.951057
vn 0.559017 0.181636 -0.809017
vn 0.140291 0.275336 -0.951057
vn 0.475528 0.345491 -0.809017
vn 0.799057 0.126558 -0.587785
vn 0.048341 0.305212 -0.951057
vn 0.345491 0.475528 -0.809017
vn 0.720839 0.367286 -0.587785
vn 0.181636 0.559017 -0.809017
vn 0.572061 0.572061 -0.587785
vn 0.904508 0.293893 -0.309017
vn 0.367286 0.720839 -0.587785
vn 0.769421 0.559017 -0.309017
vn 0.126558 0.799057 -0.587785
vn 0.559017 0.769421 -0.309017
vn 0.293893 0.904508 -0.309017
vt 0.000000 -1.570796
vt 0.000000 -1.346397
vt 0.000000 -1.121997
vt 0.000000 -0.897598
vt 0.000000 -0.673198
vt 0.000000 -0.448799
vt 0.000000 -0.224399
vt 0.000000 0.000000
vt 1.570796 -1.570796
vt 1.570796 -1.346397
vt 1.570796 -1.121997
vt 1.570796 -0.897598
vt 1.570796 -0.673198
vt 1.570796 -0.448799
vt 1.570796 -0.224399
vt 1.570796 0.000000
vt 0.224399 0.000000
vt 0.448799 0.000000
vt 0.673198 0.000000
vt 0.897598 0.000000
vt 1.121997 0.000000
vt 1.346397 0.000000
vt 0.157080 -1.256637
vt 0.471239 -1.256637
vt 0.785398 -1.256637
vt 0.314159 -0.942478
vt 1.099557 -1.256637
vt 0.628319 -0.942478
vt 0.157080 -0.628319
vt 1.413717 -1.256637
vt 0.942478 -0.942478
vt 0.471239 -0.628319
vt 1.256637 -0.942478
vt 0.785398 -0.628319
vt 0.314159 -0.314159
vt 1.099557 -0.628319
vt 0.628319 -0.314159
vt 1.413717 -0.628319
vt 0.942478 -0.314159
vt 1.256637 -0.314159
f 469/469/469 460/460/460 459/459/459
f 468/468/468 474/474/474 467/467/467
f 475/475/475 455/455/455 454/454/454
f 476/476/476 454/454/454 453/453/453
f 476/476/476 475/475/475 454/454/454
f 477/477/477 453/453/453 461/461/461
f 477/477/477 476/476/476 453/453/453
f 478/478/478 456/456/456 455/455/455
f 478/478/478 455/455/455 475/475/475
f 478/478/478 475/475/475 476/476/476
f 479/479/479 461/461/461 462/462/462
f 479/479/479 477/477/477 461/461/461
f 480/480/480 476/476/476 477/477/477
f 480/480/480 478/478/478 476/476/476
f 481/481/481 457/457/457 456/456/456
f 481/481/481 458/458/458 457/457/457
f 481/481/481 456/456/456 478/478/478
f 482/482/482 462/462/462 463/463/463
f 482/482/482 479/479/479 462/462/462
f 483/483/483 480/480/480 477/477/477
f 483/483/483 477/477/477 479/479/479
f 484/484/484 478/478/478 480/480/480
f 484/484/484 481/481/481 478/478/478
f 485/485/485 463/463/463 464/464/464
f 485/485/485 479/479/479 482/482/482
f 485/485/485 482/482/482 463/463/463
f 485/485/485 483/483/483 479/479/479
f 486/486/486 480/480/480 483/483/483
f 486/486/486 484/484/484 480/480/480
f 487/487/487 459/459/459 458/458/458
f 487/487/487 470/470/470 469/469/469
f 487/487/487 458/458/458 481/481/481
f 487/487/487 481/481/481 484/484/484
f 487/487/487 469/469/469 459/459/459
f 488/488/488 483/483/483 485/485/485
f 488/488/488 486/486/486 483/483/483
f 489/489/489 471/471/471 470/470/470
f 489/489/489 470/470/470 487/487/487
f 489/489/489 484/484/484 486/486/486
f 489/489/489 487/487/487 484/484/484
f 490/490/490 464/464/464 465/465/465
f 490/490/490 465/465/465 466/466/466
f 490/490/490 485/485/485 464/464/464
f 490/490/490 488/488/488 485/485/485
f 491/491/491 472/472/472 471/471/471
f 491/491/491 473/473/473 472/472/472
f 491/491/491 471/471/471 489/489/489
f 491/491/491 486/486/486 488/488/488
f 491/491/491 489/489/489 486/486/486
f 492/492/492 466/466/466 467/467/467
f 492/492/492 474/474/474 473/473/473
f 492/492/492 467/467/467 474/474/474
f 492/492/492 473/473/473 491/491/491
f 492/492/492 490/490/490 466/466/466
f 492/492/492 488/488/488 490/490/490
f 492/492/492 491/491/491 488/488/488
